<mxfile host="Electron" agent="Mozilla/5.0 (Windows NT 10.0; Win64; x64) AppleWebKit/537.36 (KHTML, like Gecko) draw.io/24.7.17 Chrome/128.0.6613.36 Electron/32.0.1 Safari/537.36" version="24.7.17">
  <diagram name="Страница — 1" id="zB9K6Cd3fU8ppfVb7OSl">
    <mxGraphModel dx="629" dy="1113" grid="1" gridSize="10" guides="1" tooltips="1" connect="1" arrows="1" fold="1" page="1" pageScale="1" pageWidth="827" pageHeight="1169" math="0" shadow="0">
      <root>
        <mxCell id="0" />
        <mxCell id="1" parent="0" />
        <mxCell id="Y-AwBlDpKMIDGLYmddoH-100" style="edgeStyle=orthogonalEdgeStyle;rounded=0;orthogonalLoop=1;jettySize=auto;html=1;exitX=0.5;exitY=1;exitDx=0;exitDy=0;" edge="1" parent="1" source="Y-AwBlDpKMIDGLYmddoH-98" target="Y-AwBlDpKMIDGLYmddoH-99">
          <mxGeometry relative="1" as="geometry" />
        </mxCell>
        <mxCell id="Y-AwBlDpKMIDGLYmddoH-98" value="Начало" style="ellipse;whiteSpace=wrap;html=1;" vertex="1" parent="1">
          <mxGeometry x="420" y="380" width="120" height="80" as="geometry" />
        </mxCell>
        <mxCell id="Y-AwBlDpKMIDGLYmddoH-104" style="edgeStyle=orthogonalEdgeStyle;rounded=0;orthogonalLoop=1;jettySize=auto;html=1;exitX=0.5;exitY=1;exitDx=0;exitDy=0;entryX=0.5;entryY=0;entryDx=0;entryDy=0;" edge="1" parent="1" source="Y-AwBlDpKMIDGLYmddoH-99" target="Y-AwBlDpKMIDGLYmddoH-103">
          <mxGeometry relative="1" as="geometry" />
        </mxCell>
        <mxCell id="Y-AwBlDpKMIDGLYmddoH-99" value="srand(time(0));" style="rounded=0;whiteSpace=wrap;html=1;" vertex="1" parent="1">
          <mxGeometry x="420" y="510" width="120" height="60" as="geometry" />
        </mxCell>
        <mxCell id="Y-AwBlDpKMIDGLYmddoH-101" value="&lt;div&gt;#include &amp;lt;iostream&amp;gt;&lt;/div&gt;&lt;div&gt;#include &amp;lt;cstdlib&amp;gt;&amp;nbsp;&lt;/div&gt;&lt;div&gt;#include &amp;lt;ctime&amp;gt;&amp;nbsp;&amp;nbsp;&lt;/div&gt;&lt;div&gt;using namespace std;&lt;/div&gt;&lt;div&gt;&lt;div&gt;int main()&amp;nbsp;&lt;/div&gt;&lt;div&gt;{&lt;/div&gt;&lt;div&gt;&amp;nbsp; &amp;nbsp; setlocale(LC_ALL, &quot;Russian&quot;);&lt;/div&gt;&lt;/div&gt;" style="strokeWidth=2;html=1;shape=mxgraph.flowchart.annotation_2;align=left;labelPosition=right;pointerEvents=1;" vertex="1" parent="1">
          <mxGeometry x="580" y="430" width="50" height="100" as="geometry" />
        </mxCell>
        <mxCell id="Y-AwBlDpKMIDGLYmddoH-102" value="" style="endArrow=none;dashed=1;html=1;dashPattern=1 3;strokeWidth=2;rounded=0;entryX=0;entryY=0.5;entryDx=0;entryDy=0;entryPerimeter=0;" edge="1" parent="1" target="Y-AwBlDpKMIDGLYmddoH-101">
          <mxGeometry width="50" height="50" relative="1" as="geometry">
            <mxPoint x="480" y="480" as="sourcePoint" />
            <mxPoint x="560" y="730" as="targetPoint" />
          </mxGeometry>
        </mxCell>
        <mxCell id="Y-AwBlDpKMIDGLYmddoH-106" style="edgeStyle=orthogonalEdgeStyle;rounded=0;orthogonalLoop=1;jettySize=auto;html=1;exitX=0.5;exitY=1;exitDx=0;exitDy=0;entryX=0.5;entryY=0;entryDx=0;entryDy=0;" edge="1" parent="1" source="Y-AwBlDpKMIDGLYmddoH-103" target="Y-AwBlDpKMIDGLYmddoH-105">
          <mxGeometry relative="1" as="geometry" />
        </mxCell>
        <mxCell id="Y-AwBlDpKMIDGLYmddoH-103" value="const int size = 10;" style="rounded=0;whiteSpace=wrap;html=1;" vertex="1" parent="1">
          <mxGeometry x="420" y="600" width="120" height="60" as="geometry" />
        </mxCell>
        <mxCell id="Y-AwBlDpKMIDGLYmddoH-108" style="edgeStyle=orthogonalEdgeStyle;rounded=0;orthogonalLoop=1;jettySize=auto;html=1;exitX=0.5;exitY=1;exitDx=0;exitDy=0;entryX=0.5;entryY=0;entryDx=0;entryDy=0;" edge="1" parent="1" source="Y-AwBlDpKMIDGLYmddoH-105" target="Y-AwBlDpKMIDGLYmddoH-107">
          <mxGeometry relative="1" as="geometry" />
        </mxCell>
        <mxCell id="Y-AwBlDpKMIDGLYmddoH-105" value="int arr[size];" style="rounded=0;whiteSpace=wrap;html=1;" vertex="1" parent="1">
          <mxGeometry x="420" y="700" width="120" height="60" as="geometry" />
        </mxCell>
        <mxCell id="Y-AwBlDpKMIDGLYmddoH-110" style="edgeStyle=orthogonalEdgeStyle;rounded=0;orthogonalLoop=1;jettySize=auto;html=1;exitX=0.5;exitY=1;exitDx=0;exitDy=0;entryX=0.5;entryY=0;entryDx=0;entryDy=0;" edge="1" parent="1" source="Y-AwBlDpKMIDGLYmddoH-107" target="Y-AwBlDpKMIDGLYmddoH-109">
          <mxGeometry relative="1" as="geometry" />
        </mxCell>
        <mxCell id="Y-AwBlDpKMIDGLYmddoH-107" value="fillArray(arr, size);" style="shape=process;whiteSpace=wrap;html=1;backgroundOutline=1;" vertex="1" parent="1">
          <mxGeometry x="420" y="800" width="120" height="60" as="geometry" />
        </mxCell>
        <mxCell id="Y-AwBlDpKMIDGLYmddoH-113" style="edgeStyle=orthogonalEdgeStyle;rounded=0;orthogonalLoop=1;jettySize=auto;html=1;exitX=0.5;exitY=1;exitDx=0;exitDy=0;entryX=0.5;entryY=0;entryDx=0;entryDy=0;" edge="1" parent="1" source="Y-AwBlDpKMIDGLYmddoH-109" target="Y-AwBlDpKMIDGLYmddoH-112">
          <mxGeometry relative="1" as="geometry" />
        </mxCell>
        <mxCell id="Y-AwBlDpKMIDGLYmddoH-109" value="cout &amp;lt;&amp;lt; &quot;Исходный массив: &quot;;" style="shape=parallelogram;perimeter=parallelogramPerimeter;whiteSpace=wrap;html=1;fixedSize=1;" vertex="1" parent="1">
          <mxGeometry x="420" y="900" width="120" height="60" as="geometry" />
        </mxCell>
        <mxCell id="Y-AwBlDpKMIDGLYmddoH-116" style="edgeStyle=orthogonalEdgeStyle;rounded=0;orthogonalLoop=1;jettySize=auto;html=1;exitX=0.5;exitY=1;exitDx=0;exitDy=0;entryX=0.5;entryY=0;entryDx=0;entryDy=0;" edge="1" parent="1" source="Y-AwBlDpKMIDGLYmddoH-111" target="Y-AwBlDpKMIDGLYmddoH-115">
          <mxGeometry relative="1" as="geometry" />
        </mxCell>
        <mxCell id="Y-AwBlDpKMIDGLYmddoH-111" value="bubbleSort(arr, size);" style="shape=process;whiteSpace=wrap;html=1;backgroundOutline=1;" vertex="1" parent="1">
          <mxGeometry x="420" y="1090" width="120" height="60" as="geometry" />
        </mxCell>
        <mxCell id="Y-AwBlDpKMIDGLYmddoH-114" style="edgeStyle=orthogonalEdgeStyle;rounded=0;orthogonalLoop=1;jettySize=auto;html=1;exitX=0.5;exitY=1;exitDx=0;exitDy=0;entryX=0.5;entryY=0;entryDx=0;entryDy=0;" edge="1" parent="1" source="Y-AwBlDpKMIDGLYmddoH-112" target="Y-AwBlDpKMIDGLYmddoH-111">
          <mxGeometry relative="1" as="geometry" />
        </mxCell>
        <mxCell id="Y-AwBlDpKMIDGLYmddoH-112" value="printArray(arr, size);" style="shape=process;whiteSpace=wrap;html=1;backgroundOutline=1;" vertex="1" parent="1">
          <mxGeometry x="420" y="990" width="120" height="60" as="geometry" />
        </mxCell>
        <mxCell id="Y-AwBlDpKMIDGLYmddoH-118" style="edgeStyle=orthogonalEdgeStyle;rounded=0;orthogonalLoop=1;jettySize=auto;html=1;exitX=0.5;exitY=1;exitDx=0;exitDy=0;entryX=0.5;entryY=0;entryDx=0;entryDy=0;" edge="1" parent="1" source="Y-AwBlDpKMIDGLYmddoH-115" target="Y-AwBlDpKMIDGLYmddoH-117">
          <mxGeometry relative="1" as="geometry" />
        </mxCell>
        <mxCell id="Y-AwBlDpKMIDGLYmddoH-115" value="cout &amp;lt;&amp;lt; &quot;Отсортированный массив: &quot;;" style="shape=parallelogram;perimeter=parallelogramPerimeter;whiteSpace=wrap;html=1;fixedSize=1;" vertex="1" parent="1">
          <mxGeometry x="420" y="1190" width="120" height="60" as="geometry" />
        </mxCell>
        <mxCell id="Y-AwBlDpKMIDGLYmddoH-120" style="edgeStyle=orthogonalEdgeStyle;rounded=0;orthogonalLoop=1;jettySize=auto;html=1;exitX=0.5;exitY=1;exitDx=0;exitDy=0;" edge="1" parent="1" source="Y-AwBlDpKMIDGLYmddoH-117" target="Y-AwBlDpKMIDGLYmddoH-119">
          <mxGeometry relative="1" as="geometry" />
        </mxCell>
        <mxCell id="Y-AwBlDpKMIDGLYmddoH-117" value="printArray(arr, size);" style="shape=process;whiteSpace=wrap;html=1;backgroundOutline=1;" vertex="1" parent="1">
          <mxGeometry x="420" y="1290" width="120" height="60" as="geometry" />
        </mxCell>
        <mxCell id="Y-AwBlDpKMIDGLYmddoH-119" value="Конец" style="ellipse;whiteSpace=wrap;html=1;" vertex="1" parent="1">
          <mxGeometry x="420" y="1390" width="120" height="80" as="geometry" />
        </mxCell>
        <mxCell id="Y-AwBlDpKMIDGLYmddoH-121" value="&lt;div&gt;&amp;nbsp; &amp;nbsp; return 0;&lt;/div&gt;&lt;div&gt;}&lt;/div&gt;" style="strokeWidth=2;html=1;shape=mxgraph.flowchart.annotation_2;align=left;labelPosition=right;pointerEvents=1;" vertex="1" parent="1">
          <mxGeometry x="570" y="1330" width="50" height="100" as="geometry" />
        </mxCell>
        <mxCell id="Y-AwBlDpKMIDGLYmddoH-122" value="" style="endArrow=none;dashed=1;html=1;dashPattern=1 3;strokeWidth=2;rounded=0;entryX=0;entryY=0.5;entryDx=0;entryDy=0;entryPerimeter=0;" edge="1" parent="1" target="Y-AwBlDpKMIDGLYmddoH-121">
          <mxGeometry width="50" height="50" relative="1" as="geometry">
            <mxPoint x="480" y="1380" as="sourcePoint" />
            <mxPoint x="560" y="1510" as="targetPoint" />
          </mxGeometry>
        </mxCell>
        <mxCell id="Y-AwBlDpKMIDGLYmddoH-125" style="edgeStyle=orthogonalEdgeStyle;rounded=0;orthogonalLoop=1;jettySize=auto;html=1;exitX=0.5;exitY=1;exitDx=0;exitDy=0;entryX=0.5;entryY=0;entryDx=0;entryDy=0;" edge="1" parent="1" source="Y-AwBlDpKMIDGLYmddoH-123" target="Y-AwBlDpKMIDGLYmddoH-124">
          <mxGeometry relative="1" as="geometry" />
        </mxCell>
        <mxCell id="Y-AwBlDpKMIDGLYmddoH-123" value="void fillArray(int arr[], int size)" style="ellipse;whiteSpace=wrap;html=1;" vertex="1" parent="1">
          <mxGeometry x="870.07" y="380" width="120" height="80" as="geometry" />
        </mxCell>
        <mxCell id="Y-AwBlDpKMIDGLYmddoH-127" style="edgeStyle=orthogonalEdgeStyle;rounded=0;orthogonalLoop=1;jettySize=auto;html=1;exitX=0.5;exitY=1;exitDx=0;exitDy=0;entryX=0.5;entryY=0;entryDx=0;entryDy=0;" edge="1" parent="1" source="Y-AwBlDpKMIDGLYmddoH-124" target="Y-AwBlDpKMIDGLYmddoH-126">
          <mxGeometry relative="1" as="geometry" />
        </mxCell>
        <mxCell id="Y-AwBlDpKMIDGLYmddoH-130" style="edgeStyle=orthogonalEdgeStyle;rounded=0;orthogonalLoop=1;jettySize=auto;html=1;exitX=1;exitY=0.5;exitDx=0;exitDy=0;entryX=0.5;entryY=0;entryDx=0;entryDy=0;" edge="1" parent="1" source="Y-AwBlDpKMIDGLYmddoH-124" target="Y-AwBlDpKMIDGLYmddoH-129">
          <mxGeometry relative="1" as="geometry">
            <Array as="points">
              <mxPoint x="1010.07" y="540" />
              <mxPoint x="1010.07" y="720" />
              <mxPoint x="930.07" y="720" />
            </Array>
          </mxGeometry>
        </mxCell>
        <mxCell id="Y-AwBlDpKMIDGLYmddoH-124" value="for (int i = 0; i &amp;lt; size; ++i)" style="shape=hexagon;perimeter=hexagonPerimeter2;whiteSpace=wrap;html=1;fixedSize=1;" vertex="1" parent="1">
          <mxGeometry x="870.07" y="500" width="120" height="80" as="geometry" />
        </mxCell>
        <mxCell id="Y-AwBlDpKMIDGLYmddoH-128" style="edgeStyle=orthogonalEdgeStyle;rounded=0;orthogonalLoop=1;jettySize=auto;html=1;exitX=0.5;exitY=1;exitDx=0;exitDy=0;entryX=0;entryY=0.5;entryDx=0;entryDy=0;" edge="1" parent="1" source="Y-AwBlDpKMIDGLYmddoH-126" target="Y-AwBlDpKMIDGLYmddoH-124">
          <mxGeometry relative="1" as="geometry" />
        </mxCell>
        <mxCell id="Y-AwBlDpKMIDGLYmddoH-126" value="arr[i] = rand() % 100;" style="rounded=0;whiteSpace=wrap;html=1;" vertex="1" parent="1">
          <mxGeometry x="870.07" y="620" width="120" height="60" as="geometry" />
        </mxCell>
        <mxCell id="Y-AwBlDpKMIDGLYmddoH-129" value="Конец" style="ellipse;whiteSpace=wrap;html=1;" vertex="1" parent="1">
          <mxGeometry x="870.07" y="740" width="120" height="80" as="geometry" />
        </mxCell>
        <mxCell id="Y-AwBlDpKMIDGLYmddoH-131" style="edgeStyle=orthogonalEdgeStyle;rounded=0;orthogonalLoop=1;jettySize=auto;html=1;exitX=0.5;exitY=1;exitDx=0;exitDy=0;entryX=0.5;entryY=0;entryDx=0;entryDy=0;" edge="1" parent="1" source="Y-AwBlDpKMIDGLYmddoH-132" target="Y-AwBlDpKMIDGLYmddoH-135">
          <mxGeometry relative="1" as="geometry" />
        </mxCell>
        <mxCell id="Y-AwBlDpKMIDGLYmddoH-132" value="void printArray(const int arr[], int size)&amp;nbsp;" style="ellipse;whiteSpace=wrap;html=1;" vertex="1" parent="1">
          <mxGeometry x="870" y="950" width="120" height="80" as="geometry" />
        </mxCell>
        <mxCell id="Y-AwBlDpKMIDGLYmddoH-133" style="edgeStyle=orthogonalEdgeStyle;rounded=0;orthogonalLoop=1;jettySize=auto;html=1;exitX=0.5;exitY=1;exitDx=0;exitDy=0;entryX=0.5;entryY=0;entryDx=0;entryDy=0;" edge="1" parent="1" source="Y-AwBlDpKMIDGLYmddoH-135">
          <mxGeometry relative="1" as="geometry">
            <mxPoint x="929.9999999999997" y="1190" as="targetPoint" />
          </mxGeometry>
        </mxCell>
        <mxCell id="Y-AwBlDpKMIDGLYmddoH-143" style="edgeStyle=orthogonalEdgeStyle;rounded=0;orthogonalLoop=1;jettySize=auto;html=1;exitX=1;exitY=0.5;exitDx=0;exitDy=0;" edge="1" parent="1" source="Y-AwBlDpKMIDGLYmddoH-135" target="Y-AwBlDpKMIDGLYmddoH-141">
          <mxGeometry relative="1" as="geometry">
            <Array as="points">
              <mxPoint x="1010.07" y="1110" />
              <mxPoint x="1010.07" y="1290" />
              <mxPoint x="930.07" y="1290" />
            </Array>
          </mxGeometry>
        </mxCell>
        <mxCell id="Y-AwBlDpKMIDGLYmddoH-135" value="for (int i = 0; i &amp;lt; size; ++i)" style="shape=hexagon;perimeter=hexagonPerimeter2;whiteSpace=wrap;html=1;fixedSize=1;" vertex="1" parent="1">
          <mxGeometry x="870" y="1070" width="120.07" height="80" as="geometry" />
        </mxCell>
        <mxCell id="Y-AwBlDpKMIDGLYmddoH-138" value="Конец" style="ellipse;whiteSpace=wrap;html=1;" vertex="1" parent="1">
          <mxGeometry x="870.07" y="1390" width="120" height="80" as="geometry" />
        </mxCell>
        <mxCell id="Y-AwBlDpKMIDGLYmddoH-140" style="edgeStyle=orthogonalEdgeStyle;rounded=0;orthogonalLoop=1;jettySize=auto;html=1;exitX=0.5;exitY=1;exitDx=0;exitDy=0;entryX=0;entryY=0.5;entryDx=0;entryDy=0;" edge="1" parent="1" source="Y-AwBlDpKMIDGLYmddoH-139" target="Y-AwBlDpKMIDGLYmddoH-135">
          <mxGeometry relative="1" as="geometry" />
        </mxCell>
        <mxCell id="Y-AwBlDpKMIDGLYmddoH-139" value="cout &amp;lt;&amp;lt; arr[i] &amp;lt;&amp;lt; &quot; &quot;;" style="shape=parallelogram;perimeter=parallelogramPerimeter;whiteSpace=wrap;html=1;fixedSize=1;" vertex="1" parent="1">
          <mxGeometry x="870.07" y="1190" width="120" height="60" as="geometry" />
        </mxCell>
        <mxCell id="Y-AwBlDpKMIDGLYmddoH-144" style="edgeStyle=orthogonalEdgeStyle;rounded=0;orthogonalLoop=1;jettySize=auto;html=1;exitX=0.5;exitY=1;exitDx=0;exitDy=0;entryX=0.5;entryY=0;entryDx=0;entryDy=0;" edge="1" parent="1" source="Y-AwBlDpKMIDGLYmddoH-141" target="Y-AwBlDpKMIDGLYmddoH-138">
          <mxGeometry relative="1" as="geometry" />
        </mxCell>
        <mxCell id="Y-AwBlDpKMIDGLYmddoH-141" value="cout &amp;lt;&amp;lt; endl;" style="shape=parallelogram;perimeter=parallelogramPerimeter;whiteSpace=wrap;html=1;fixedSize=1;" vertex="1" parent="1">
          <mxGeometry x="870.07" y="1310" width="120" height="60" as="geometry" />
        </mxCell>
        <mxCell id="Y-AwBlDpKMIDGLYmddoH-147" style="edgeStyle=orthogonalEdgeStyle;rounded=0;orthogonalLoop=1;jettySize=auto;html=1;exitX=0.5;exitY=1;exitDx=0;exitDy=0;entryX=0.5;entryY=0;entryDx=0;entryDy=0;" edge="1" parent="1" source="Y-AwBlDpKMIDGLYmddoH-145" target="Y-AwBlDpKMIDGLYmddoH-146">
          <mxGeometry relative="1" as="geometry" />
        </mxCell>
        <mxCell id="Y-AwBlDpKMIDGLYmddoH-145" value="&lt;div&gt;&lt;span style=&quot;background-color: initial;&quot;&gt;void bubbleSort(int arr[], int size)&amp;nbsp;&lt;/span&gt;&lt;br&gt;&lt;/div&gt;" style="ellipse;whiteSpace=wrap;html=1;" vertex="1" parent="1">
          <mxGeometry x="1259.93" y="380" width="120" height="80" as="geometry" />
        </mxCell>
        <mxCell id="Y-AwBlDpKMIDGLYmddoH-149" style="edgeStyle=orthogonalEdgeStyle;rounded=0;orthogonalLoop=1;jettySize=auto;html=1;exitX=0.5;exitY=1;exitDx=0;exitDy=0;" edge="1" parent="1" source="Y-AwBlDpKMIDGLYmddoH-146" target="Y-AwBlDpKMIDGLYmddoH-148">
          <mxGeometry relative="1" as="geometry" />
        </mxCell>
        <mxCell id="Y-AwBlDpKMIDGLYmddoH-164" style="edgeStyle=orthogonalEdgeStyle;rounded=0;orthogonalLoop=1;jettySize=auto;html=1;exitX=1;exitY=0.5;exitDx=0;exitDy=0;" edge="1" parent="1" source="Y-AwBlDpKMIDGLYmddoH-146" target="Y-AwBlDpKMIDGLYmddoH-163">
          <mxGeometry relative="1" as="geometry">
            <Array as="points">
              <mxPoint x="1550" y="530" />
              <mxPoint x="1550" y="1180" />
              <mxPoint x="1320" y="1180" />
            </Array>
          </mxGeometry>
        </mxCell>
        <mxCell id="Y-AwBlDpKMIDGLYmddoH-146" value="for (int i = 0; i &amp;lt; size - 1; ++i)&amp;nbsp;" style="shape=hexagon;perimeter=hexagonPerimeter2;whiteSpace=wrap;html=1;fixedSize=1;" vertex="1" parent="1">
          <mxGeometry x="1259.93" y="490" width="120" height="80" as="geometry" />
        </mxCell>
        <mxCell id="Y-AwBlDpKMIDGLYmddoH-151" style="edgeStyle=orthogonalEdgeStyle;rounded=0;orthogonalLoop=1;jettySize=auto;html=1;exitX=0.5;exitY=1;exitDx=0;exitDy=0;entryX=0.5;entryY=0;entryDx=0;entryDy=0;" edge="1" parent="1" source="Y-AwBlDpKMIDGLYmddoH-148" target="Y-AwBlDpKMIDGLYmddoH-150">
          <mxGeometry relative="1" as="geometry" />
        </mxCell>
        <mxCell id="Y-AwBlDpKMIDGLYmddoH-162" style="edgeStyle=orthogonalEdgeStyle;rounded=0;orthogonalLoop=1;jettySize=auto;html=1;exitX=1;exitY=0.5;exitDx=0;exitDy=0;entryX=0;entryY=0.5;entryDx=0;entryDy=0;" edge="1" parent="1" source="Y-AwBlDpKMIDGLYmddoH-148" target="Y-AwBlDpKMIDGLYmddoH-146">
          <mxGeometry relative="1" as="geometry">
            <Array as="points">
              <mxPoint x="1510" y="650" />
              <mxPoint x="1510" y="1160" />
              <mxPoint x="1090" y="1160" />
              <mxPoint x="1090" y="530" />
            </Array>
          </mxGeometry>
        </mxCell>
        <mxCell id="Y-AwBlDpKMIDGLYmddoH-148" value="for (int j = 0; j &amp;lt; size - i - 1; ++j)" style="shape=hexagon;perimeter=hexagonPerimeter2;whiteSpace=wrap;html=1;fixedSize=1;" vertex="1" parent="1">
          <mxGeometry x="1259.93" y="610" width="120" height="80" as="geometry" />
        </mxCell>
        <mxCell id="Y-AwBlDpKMIDGLYmddoH-153" style="edgeStyle=orthogonalEdgeStyle;rounded=0;orthogonalLoop=1;jettySize=auto;html=1;exitX=0;exitY=0.5;exitDx=0;exitDy=0;" edge="1" parent="1" source="Y-AwBlDpKMIDGLYmddoH-150" target="Y-AwBlDpKMIDGLYmddoH-152">
          <mxGeometry relative="1" as="geometry" />
        </mxCell>
        <mxCell id="Y-AwBlDpKMIDGLYmddoH-160" style="edgeStyle=orthogonalEdgeStyle;rounded=0;orthogonalLoop=1;jettySize=auto;html=1;exitX=1;exitY=0.5;exitDx=0;exitDy=0;" edge="1" parent="1" source="Y-AwBlDpKMIDGLYmddoH-150">
          <mxGeometry relative="1" as="geometry">
            <mxPoint x="1210" y="1120" as="targetPoint" />
            <Array as="points">
              <mxPoint x="1470" y="770" />
              <mxPoint x="1470" y="1120" />
            </Array>
          </mxGeometry>
        </mxCell>
        <mxCell id="Y-AwBlDpKMIDGLYmddoH-150" value="if (arr[j] &amp;gt; arr[j + 1])&amp;nbsp;" style="rhombus;whiteSpace=wrap;html=1;" vertex="1" parent="1">
          <mxGeometry x="1279.93" y="730" width="80" height="80" as="geometry" />
        </mxCell>
        <mxCell id="Y-AwBlDpKMIDGLYmddoH-156" style="edgeStyle=orthogonalEdgeStyle;rounded=0;orthogonalLoop=1;jettySize=auto;html=1;exitX=0.5;exitY=1;exitDx=0;exitDy=0;entryX=0.5;entryY=0;entryDx=0;entryDy=0;" edge="1" parent="1" source="Y-AwBlDpKMIDGLYmddoH-152" target="Y-AwBlDpKMIDGLYmddoH-154">
          <mxGeometry relative="1" as="geometry" />
        </mxCell>
        <mxCell id="Y-AwBlDpKMIDGLYmddoH-152" value="int temp = arr[j];" style="rounded=0;whiteSpace=wrap;html=1;" vertex="1" parent="1">
          <mxGeometry x="1149.93" y="830" width="120" height="60" as="geometry" />
        </mxCell>
        <mxCell id="Y-AwBlDpKMIDGLYmddoH-157" style="edgeStyle=orthogonalEdgeStyle;rounded=0;orthogonalLoop=1;jettySize=auto;html=1;exitX=0.5;exitY=1;exitDx=0;exitDy=0;entryX=0.5;entryY=0;entryDx=0;entryDy=0;" edge="1" parent="1" source="Y-AwBlDpKMIDGLYmddoH-154" target="Y-AwBlDpKMIDGLYmddoH-155">
          <mxGeometry relative="1" as="geometry" />
        </mxCell>
        <mxCell id="Y-AwBlDpKMIDGLYmddoH-154" value="arr[j] = arr[j + 1];" style="rounded=0;whiteSpace=wrap;html=1;" vertex="1" parent="1">
          <mxGeometry x="1149.93" y="930" width="120" height="60" as="geometry" />
        </mxCell>
        <mxCell id="Y-AwBlDpKMIDGLYmddoH-159" style="edgeStyle=orthogonalEdgeStyle;rounded=0;orthogonalLoop=1;jettySize=auto;html=1;exitX=0.5;exitY=1;exitDx=0;exitDy=0;entryX=0;entryY=0.5;entryDx=0;entryDy=0;" edge="1" parent="1" source="Y-AwBlDpKMIDGLYmddoH-155" target="Y-AwBlDpKMIDGLYmddoH-148">
          <mxGeometry relative="1" as="geometry">
            <Array as="points">
              <mxPoint x="1209.93" y="1120" />
              <mxPoint x="1129.93" y="1120" />
              <mxPoint x="1129.93" y="650" />
            </Array>
          </mxGeometry>
        </mxCell>
        <mxCell id="Y-AwBlDpKMIDGLYmddoH-155" value="arr[j + 1] = temp;" style="rounded=0;whiteSpace=wrap;html=1;" vertex="1" parent="1">
          <mxGeometry x="1149.93" y="1040" width="120" height="60" as="geometry" />
        </mxCell>
        <mxCell id="Y-AwBlDpKMIDGLYmddoH-158" value="1" style="text;html=1;align=center;verticalAlign=middle;resizable=0;points=[];autosize=1;strokeColor=none;fillColor=none;" vertex="1" parent="1">
          <mxGeometry x="1194.93" y="738" width="30" height="30" as="geometry" />
        </mxCell>
        <mxCell id="Y-AwBlDpKMIDGLYmddoH-161" value="0" style="text;html=1;align=center;verticalAlign=middle;resizable=0;points=[];autosize=1;strokeColor=none;fillColor=none;" vertex="1" parent="1">
          <mxGeometry x="1415" y="738" width="30" height="30" as="geometry" />
        </mxCell>
        <mxCell id="Y-AwBlDpKMIDGLYmddoH-163" value="Конец" style="ellipse;whiteSpace=wrap;html=1;" vertex="1" parent="1">
          <mxGeometry x="1259.93" y="1200" width="120" height="80" as="geometry" />
        </mxCell>
      </root>
    </mxGraphModel>
  </diagram>
</mxfile>
